<?xml version="1.0" encoding="UTF-8" standalone="no"?>
<!-- Created with Inkscape (http://www.inkscape.org/) -->

<svg
   width="128"
   height="64"
   viewBox="0 0 128 64"
   version="1.1"
   id="svg1"
   inkscape:version="1.4.2 (f4327f4, 2025-05-13)"
   sodipodi:docname="Logo.svg"
   inkscape:export-filename="Logo3.png"
   inkscape:export-xdpi="12"
   inkscape:export-ydpi="12"
   xmlns:inkscape="http://www.inkscape.org/namespaces/inkscape"
   xmlns:sodipodi="http://sodipodi.sourceforge.net/DTD/sodipodi-0.dtd"
   xmlns="http://www.w3.org/2000/svg"
   xmlns:svg="http://www.w3.org/2000/svg">
  <sodipodi:namedview
     id="namedview1"
     pagecolor="#00112b"
     bordercolor="#000000"
     borderopacity="0.25"
     inkscape:showpageshadow="2"
     inkscape:pageopacity="0.0"
     inkscape:pagecheckerboard="0"
     inkscape:deskcolor="#d1d1d1"
     inkscape:document-units="px"
     showgrid="true"
     inkscape:zoom="5.6568543"
     inkscape:cx="53.828504"
     inkscape:cy="28.195883"
     inkscape:window-width="1920"
     inkscape:window-height="1009"
     inkscape:window-x="1912"
     inkscape:window-y="-8"
     inkscape:window-maximized="1"
     inkscape:current-layer="svg1">
    <inkscape:grid
       id="grid1"
       units="px"
       originx="0"
       originy="0"
       spacingx="1"
       spacingy="1"
       empcolor="#0099e5"
       empopacity="0.30196078"
       color="#0099e5"
       opacity="0.14901961"
       empspacing="4"
       enabled="true"
       visible="true" />
    <inkscape:grid
       id="grid2"
       units="px"
       originx="0"
       originy="0"
       spacingx="1"
       spacingy="1"
       empcolor="#e50000"
       empopacity="0.64705882"
       color="#e50000"
       opacity="0"
       empspacing="8"
       enabled="true"
       visible="true" />
  </sodipodi:namedview>
  <defs
     id="defs1">
    <inkscape:path-effect
       effect="gears"
       id="path-effect6"
       is_visible="true"
       lpeversion="1"
       teeth="8"
       phi="30"
       min_radius="5" />
    <inkscape:path-effect
       effect="gears"
       id="path-effect5"
       is_visible="true"
       lpeversion="1"
       teeth="8"
       phi="5"
       min_radius="5" />
    <inkscape:path-effect
       effect="gears"
       id="path-effect1"
       is_visible="true"
       lpeversion="1"
       teeth="8"
       phi="27"
       min_radius="24" />
    <inkscape:path-effect
       effect="fillet_chamfer"
       id="path-effect17"
       is_visible="true"
       lpeversion="1"
       nodesatellites_param="F,0,0,1,0,0,0,1 @ F,0,0,1,0,0,0,1 @ F,0,0,1,0,0,0,1 @ F,0,0,1,0,1.34375,0,1 @ F,0,0,1,0,0,0,1 @ F,0,0,1,0,0,0,1 @ F,0,0,1,0,1.34375,0,1 @ F,0,0,1,0,0,0,1 @ F,0,0,1,0,0,0,1 @ F,0,0,1,0,0,0,1"
       radius="0"
       unit="px"
       method="auto"
       mode="F"
       chamfer_steps="1"
       flexible="false"
       use_knot_distance="true"
       apply_no_radius="true"
       apply_with_radius="true"
       only_selected="false"
       hide_knots="false" />
    <inkscape:path-effect
       effect="fillet_chamfer"
       id="path-effect16"
       is_visible="true"
       lpeversion="1"
       nodesatellites_param="F,0,0,1,0,0,0,1 @ F,0,0,1,0,0,0,1 @ F,0,0,1,0,1.34375,0,1 @ F,0,0,1,0,0,0,1 @ F,0,0,1,0,0,0,1 @ F,0,0,1,0,0,0,1 @ F,0,0,1,0,0,0,1 @ F,0,0,1,0,0,0,1 @ F,0,0,1,0,0,0,1 @ F,0,0,1,0,1.34375,0,1"
       radius="0"
       unit="px"
       method="auto"
       mode="F"
       chamfer_steps="1"
       flexible="false"
       use_knot_distance="true"
       apply_no_radius="true"
       apply_with_radius="true"
       only_selected="false"
       hide_knots="false" />
    <inkscape:path-effect
       effect="fillet_chamfer"
       id="path-effect15"
       is_visible="true"
       lpeversion="1"
       nodesatellites_param="F,0,0,1,0,0,0,1 @ F,0,0,1,0,1.34375,0,1 @ F,0,0,1,0,1.34375,0,1 @ F,0,0,1,0,0,0,1 @ F,0,0,1,0,0,0,1 @ F,0,0,1,0,0,0,1 @ F,0,0,1,0,0,0,1 @ F,0,0,1,0,0,0,1 @ F,0,0,1,0,0,0,1 @ F,0,0,1,0,1.34375,0,1 @ F,0,0,1,0,1.34375,0,1 @ F,0,0,1,0,0,0,1 @ F,0,0,1,0,0,0,1 @ F,0,0,1,0,0,0,1 @ F,0,0,1,0,0,0,1 @ F,0,0,1,0,0,0,1"
       radius="0"
       unit="px"
       method="auto"
       mode="F"
       chamfer_steps="1"
       flexible="false"
       use_knot_distance="true"
       apply_no_radius="true"
       apply_with_radius="true"
       only_selected="false"
       hide_knots="false" />
    <inkscape:path-effect
       effect="fillet_chamfer"
       id="path-effect14"
       is_visible="true"
       lpeversion="1"
       nodesatellites_param="F,0,0,1,0,0,0,1 @ F,0,0,1,0,0,0,1 @ F,0,0,1,0,0,0,1 @ F,0,0,1,0,2,0,1 @ F,0,0,1,0,2,0,1 @ F,0,0,1,0,2,0,1 @ F,0,0,1,0,0,0,1"
       radius="0"
       unit="px"
       method="auto"
       mode="F"
       chamfer_steps="1"
       flexible="false"
       use_knot_distance="true"
       apply_no_radius="true"
       apply_with_radius="true"
       only_selected="false"
       hide_knots="false" />
    <inkscape:path-effect
       effect="fillet_chamfer"
       id="path-effect13"
       is_visible="true"
       lpeversion="1"
       nodesatellites_param="F,0,0,1,0,2,0,1 @ F,0,0,1,0,0,0,1 @ F,0,0,1,0,0,0,1 @ F,0,0,1,0,2,0,1 @ F,0,0,1,0,2,0,1 @ F,0,0,1,0,2,0,1 @ F,0,0,1,0,0,0,1 @ F,0,0,1,0,0,0,1 @ F,0,0,1,0,2,0,1 @ F,0,0,1,0,2,0,1"
       radius="0"
       unit="px"
       method="auto"
       mode="F"
       chamfer_steps="1"
       flexible="false"
       use_knot_distance="true"
       apply_no_radius="true"
       apply_with_radius="true"
       only_selected="false"
       hide_knots="false" />
    <inkscape:path-effect
       effect="fillet_chamfer"
       id="path-effect12"
       is_visible="true"
       lpeversion="1"
       nodesatellites_param="F,0,0,1,0,2,0,1 @ F,0,0,1,0,2,0,1 @ F,0,0,1,0,0,0,1 @ F,0,0,1,0,0,0,1 @ F,0,0,1,0,0,0,1 @ F,0,0,1,0,0,0,1 @ F,0,0,1,0,2,0,1"
       radius="0"
       unit="px"
       method="auto"
       mode="F"
       chamfer_steps="1"
       flexible="false"
       use_knot_distance="true"
       apply_no_radius="true"
       apply_with_radius="true"
       only_selected="false"
       hide_knots="false" />
  </defs>
  <path
     id="path1"
     style="display:inline;fill:#0066ff;fill-opacity:0.294118;stroke-width:4"
     d="M 32 6 C 31.387452 5.9998507 30.775091 6.0213491 30.164062 6.0644531 C 26.574065 10.413427 27.285156 13.541016 27.285156 13.541016 L 27.544922 14.560547 C 25.884263 14.984536 24.292672 15.643534 22.818359 16.517578 L 22.28125 15.613281 C 22.28125 15.613281 20.572684 12.899959 14.958984 12.363281 C 14.033674 13.166278 13.166278 14.033674 12.363281 14.958984 C 12.899959 20.572685 15.613281 22.28125 15.613281 22.28125 L 16.517578 22.818359 C 15.643534 24.292672 14.984536 25.884263 14.560547 27.544922 L 13.541016 27.285156 C 13.541016 27.285156 10.413427 26.574065 6.0644531 30.164062 C 6.0213485 30.775091 5.9998507 31.387452 6 32 C 5.9998507 32.612548 6.0213491 33.224908 6.0644531 33.835938 C 10.413427 37.425936 13.541016 36.714844 13.541016 36.714844 L 14.560547 36.455078 C 14.984536 38.115737 15.643534 39.707328 16.517578 41.181641 L 15.613281 41.71875 C 15.613281 41.71875 12.899959 43.427316 12.363281 49.041016 C 13.166278 49.966326 14.033674 50.833722 14.958984 51.636719 C 20.572685 51.100041 22.28125 48.386719 22.28125 48.386719 L 22.818359 47.482422 C 24.292672 48.356466 25.884263 49.015464 27.544922 49.439453 L 27.285156 50.458984 C 27.285156 50.458984 26.574065 53.586573 30.164062 57.935547 C 30.775091 57.978647 31.387452 58.00015 32 58 C 32.612548 58.000149 33.224908 57.978647 33.835938 57.935547 C 37.425936 53.586573 36.714844 50.458984 36.714844 50.458984 L 36.455078 49.439453 C 38.115737 49.015464 39.707328 48.356466 41.181641 47.482422 L 41.71875 48.386719 C 41.71875 48.386719 43.427316 51.100041 49.041016 51.636719 C 49.966326 50.833722 50.833722 49.966326 51.636719 49.041016 C 51.100041 43.427315 48.386719 41.71875 48.386719 41.71875 L 47.482422 41.181641 C 48.356466 39.707328 49.015464 38.115737 49.439453 36.455078 L 50.458984 36.714844 C 50.458984 36.714844 53.586573 37.425936 57.935547 33.835938 C 57.978652 33.224908 58.000149 32.612548 58 32 C 58.000149 31.387452 57.978647 30.775091 57.935547 30.164062 C 53.586573 26.574065 50.458984 27.285156 50.458984 27.285156 L 49.439453 27.544922 C 49.015464 25.884263 48.356466 24.292672 47.482422 22.818359 L 48.386719 22.28125 C 48.386719 22.28125 51.100041 20.572684 51.636719 14.958984 C 50.833722 14.033674 49.966326 13.166278 49.041016 12.363281 C 43.427315 12.899959 41.71875 15.613281 41.71875 15.613281 L 41.181641 16.517578 C 39.707328 15.643534 38.115737 14.984536 36.455078 14.560547 L 36.714844 13.541016 C 36.714844 13.541016 37.425936 10.413427 33.835938 6.0644531 C 33.224905 6.0213485 32.612548 5.9998507 32 6 z M 32 22 A 10 10 0 0 1 42 32 A 10 10 0 0 1 32 42 A 10 10 0 0 1 22 32 A 10 10 0 0 1 32 22 z M 28 28 L 28 36 L 36 36 L 36 28 L 28 28 z " />
  <path
     d="m 68.991687,11.598486 a 20.5,20.5 0 0 0 -1.786415,0.256712 20.5,20.5 0 0 0 -1.757055,0.410824 c -2.686757,4.446793 -1.321487,7.206003 -1.321487,7.206003 l 0.861782,1.568717 a 12.5,12.5 0 0 0 -3.917427,3.364406 L 59.64967,23.317061 c 0,0 -2.520075,-1.765393 -7.320926,0.220674 a 20.5,20.5 0 0 0 -1.194494,3.402751 c 2.507659,4.550197 5.580076,4.747666 5.580076,4.747666 l 1.787951,0.03746 a 12.5,12.5 0 0 0 0.213767,2.58718 12.5,12.5 0 0 0 0.742665,2.488847 l -1.652225,0.686154 c 0,0 -2.790657,1.301549 -3.471101,6.452241 a 20.5,20.5 0 0 0 2.35091,2.735489 c 5.194415,0.103404 6.89963,-2.458609 6.899629,-2.458611 l 0.928102,-1.530988 a 12.5,12.5 0 0 0 4.874136,1.709688 l -0.232745,1.773966 c 0,0 -0.268652,3.067217 3.851758,6.231842 a 20.5,20.5 0 0 0 1.788349,-0.256438 20.5,20.5 0 0 0 1.755121,-0.411099 C 79.2374,47.287085 77.874064,44.52815 77.874064,44.52815 l -0.861782,-1.568716 a 12.5,12.5 0 0 0 3.915494,-3.364682 l 1.42169,1.086153 c 0,0 2.521733,1.767602 7.322584,-0.218465 a 20.5,20.5 0 0 0 1.19256,-3.403026 c -2.507657,-4.550196 -5.580076,-4.747666 -5.580076,-4.747666 l -1.78795,-0.03745 a 12.5,12.5 0 0 0 -0.211559,-2.58884 12.5,12.5 0 0 0 -0.74294,-2.486913 l 1.650292,-0.686429 c 0,0 2.790659,-1.301549 3.471101,-6.452241 a 20.5,20.5 0 0 0 -2.348977,-2.735214 c -5.194415,-0.103404 -6.901564,2.458336 -6.901563,2.458337 l -0.928102,1.530987 a 12.5,12.5 0 0 0 -4.872201,-1.709412 l 0.230811,-1.774242 c 0,0 0.268651,-3.067216 -3.851759,-6.231841 z m 5.19887,15.729291 1.481046,7.8633 -7.861091,1.479387 -1.481321,-7.861366 z"
     style="display:inline;fill:#0066ff;fill-opacity:0.294118;stroke-width:4"
     id="path8"
     transform="rotate(-8.1,32,32)" />
</svg>
